M48
;Layer_Color=9474304
;FILE_FORMAT=4:4
METRIC,LZ
;TYPE=PLATED
T01F00S00C0.3048
T02F00S00C0.8000
T03F00S00C1.0200
%
T01
X00127Y000254
X0012192Y0009144
X0055372Y0015748
Y001778
X0054864Y002032
X0055245Y0036195
X005334Y0036068
X0051308
X0049276
X0046736
X0014732
X001524Y0042164
X0012065Y0050165
X0010414Y005207
X0014224Y0029972
X0012192Y0015748
T02
X0045165Y0066675
X0050165
T03
X0005715Y0005715
X0008255
X0010795
X0013335
Y00127
X0010795
X0008255
X0005715
X0015875
X0022225
X0024765
X0027305
Y0005715
X0024765
X0022225
X0015875
X003556Y001143
Y001397
X006096
Y001143
X008001Y000254
X009525
Y00381
Y004699
Y0052705
X008001Y00381
X0073025Y0045085
X006985
X006096Y004445
Y004191
Y003937
Y003683
Y003429
Y003175
Y002921
Y002667
Y002413
Y002159
Y001905
Y001651
X0069215Y002413
Y002667
Y002921
X006096Y004699
X003556
Y004445
Y004191
Y003937
Y003683
Y003429
Y003175
Y002921
Y002667
Y002413
Y002159
Y001905
Y001651
X0027305Y001905
X0024765
X0022225
X0015875
Y0026035
X0022225
X0024765
X0027305
Y003302
X0024765
X0022225
X0015875
Y003937
Y004572
X002159
X002413
X002667
X0027305Y003937
X0024765
X0022225
X0013335
X0010795
X0008255
X0005715
Y004572
X0008255
X0010795
X0013335
Y003302
X0010795
X0008255
X0005715
Y0026035
X0008255
X0010795
X0013335
Y001905
X0010795
X0008255
X0005715
X005588Y0057785
Y0076835
X009652
Y0057785
M30
