G04*
G04 #@! TF.GenerationSoftware,Altium Limited,Altium Designer,26.9.1 (10)*
G04*
G04 Layer_Color=8388736*
G04 Board_Origin=10000000|10000000*
%FSLAX44Y44*%
%MOMM*%
G71*
G04*
G04 #@! TF.SameCoordinates,6556D2AD-C8B8-4011-BA1B-DA4E158A5B95*
G04*
G04*
G04 #@! TF.FilePolarity,Negative*
G04*
G01*
G75*
%ADD16R,0.9546X1.2621*%
%ADD17C,1.5700*%
%ADD18R,1.5700X1.5700*%
%ADD19C,1.5200*%
%ADD20R,1.5200X1.5200*%
%ADD21R,1.5200X1.5200*%
%ADD22C,1.3000*%
%ADD23R,1.3000X1.3000*%
D16*
X684392Y361950D02*
D03*
X699908D02*
D03*
D17*
X698500Y450850D02*
D03*
X800100Y381000D02*
D03*
X952500Y25400D02*
D03*
X800100D02*
D03*
X952500Y381000D02*
D03*
X355600Y114300D02*
D03*
Y139700D02*
D03*
Y165100D02*
D03*
Y190500D02*
D03*
Y215900D02*
D03*
Y241300D02*
D03*
Y266700D02*
D03*
Y292100D02*
D03*
Y317500D02*
D03*
Y342900D02*
D03*
Y368300D02*
D03*
Y393700D02*
D03*
Y419100D02*
D03*
Y444500D02*
D03*
X558800Y577850D02*
D03*
X730250Y450850D02*
D03*
X558800Y768350D02*
D03*
X952500Y527050D02*
D03*
X965200Y768350D02*
D03*
X609600Y139700D02*
D03*
Y114300D02*
D03*
Y165100D02*
D03*
Y190500D02*
D03*
Y215900D02*
D03*
Y241300D02*
D03*
Y266700D02*
D03*
Y292100D02*
D03*
Y317500D02*
D03*
Y342900D02*
D03*
Y368300D02*
D03*
Y393700D02*
D03*
Y419100D02*
D03*
Y444500D02*
D03*
X965200Y577850D02*
D03*
X952500Y469900D02*
D03*
D18*
X355600D02*
D03*
X609600D02*
D03*
D19*
X273050Y190500D02*
D03*
Y393700D02*
D03*
Y127000D02*
D03*
X241300Y457200D02*
D03*
X247650Y393700D02*
D03*
Y330200D02*
D03*
Y260350D02*
D03*
Y190500D02*
D03*
Y127000D02*
D03*
Y57150D02*
D03*
X133350Y457200D02*
D03*
Y393700D02*
D03*
Y330200D02*
D03*
Y260350D02*
D03*
Y190500D02*
D03*
Y127000D02*
D03*
Y57150D02*
D03*
X57150Y457200D02*
D03*
Y393700D02*
D03*
Y330200D02*
D03*
Y260350D02*
D03*
Y190500D02*
D03*
Y127000D02*
D03*
Y57150D02*
D03*
X692150Y266700D02*
D03*
X273050Y330200D02*
D03*
X266700Y457200D02*
D03*
X273050Y260350D02*
D03*
Y57150D02*
D03*
X82550Y457200D02*
D03*
Y393700D02*
D03*
Y330200D02*
D03*
Y260350D02*
D03*
Y190500D02*
D03*
Y127000D02*
D03*
Y57150D02*
D03*
X107950Y393700D02*
D03*
Y457200D02*
D03*
Y127000D02*
D03*
Y190500D02*
D03*
Y260350D02*
D03*
Y57150D02*
D03*
Y330200D02*
D03*
X692150Y292100D02*
D03*
D20*
X158750Y457200D02*
D03*
Y393700D02*
D03*
Y330200D02*
D03*
Y260350D02*
D03*
Y190500D02*
D03*
Y127000D02*
D03*
Y57150D02*
D03*
X215900Y457200D02*
D03*
X222250Y393700D02*
D03*
Y330200D02*
D03*
Y260350D02*
D03*
Y190500D02*
D03*
Y127000D02*
D03*
Y57150D02*
D03*
D21*
X692150Y241300D02*
D03*
D22*
X451650Y666750D02*
D03*
D23*
X501650D02*
D03*
M02*
