G04*
G04 #@! TF.GenerationSoftware,Altium Limited,Altium Designer,26.9.1 (10)*
G04*
G04 Layer_Physical_Order=1*
G04 Layer_Color=255*
G04 Board_Origin=10000000|10000000*
%FSLAX44Y44*%
%MOMM*%
G71*
G04*
G04 #@! TF.SameCoordinates,6556D2AD-C8B8-4011-BA1B-DA4E158A5B95*
G04*
G04*
G04 #@! TF.FilePolarity,Positive*
G04*
G01*
G75*
%ADD12C,0.2540*%
%ADD16R,0.9546X1.2621*%
%ADD17C,1.5700*%
%ADD18R,1.5700X1.5700*%
%ADD19C,1.5200*%
%ADD20R,1.5200X1.5200*%
%ADD21R,1.5200X1.5200*%
%ADD22C,1.3000*%
%ADD23R,1.3000X1.3000*%
%ADD24C,2.0320*%
%ADD25C,0.6096*%
D12*
X82550Y499110D02*
X104140Y520700D01*
X82550Y393700D02*
Y499110D01*
X325120Y284480D02*
Y309880D01*
X304800Y330200D02*
X325120Y309880D01*
Y284480D02*
X342900Y266700D01*
X334010Y260350D02*
X353060Y241300D01*
X273050Y260350D02*
X334010D01*
X353060Y241300D02*
X355600D01*
X273050Y330200D02*
X304800D01*
X342900Y266700D02*
X355600D01*
X561340Y215900D02*
X609600D01*
X548640Y203200D02*
X561340Y215900D01*
X107950Y171450D02*
X121920Y157480D01*
X107950Y171450D02*
Y190500D01*
X467360Y340360D02*
Y360680D01*
X566420Y241300D02*
X609600D01*
X467360Y340360D02*
X566420Y241300D01*
X127000Y299720D02*
X142240D01*
X107950Y280670D02*
X127000Y299720D01*
X107950Y260350D02*
Y280670D01*
X492760Y345440D02*
Y360680D01*
Y345440D02*
X571500Y266700D01*
X513080Y350520D02*
Y360680D01*
Y350520D02*
X571500Y292100D01*
X533400Y360680D02*
X534080Y360000D01*
Y354920D02*
Y360000D01*
Y354920D02*
X571500Y317500D01*
X138430Y360680D02*
X147320D01*
X107950Y330200D02*
X138430Y360680D01*
X135890Y421640D02*
X152400D01*
X107950Y393700D02*
X135890Y421640D01*
X568960Y193040D02*
X601532D01*
X601554Y193018D01*
X607082D01*
X609600Y190500D01*
X553720Y177800D02*
X568960Y193040D01*
X107950Y105410D02*
X121920Y91440D01*
X107950Y105410D02*
Y127000D01*
X121920Y25400D02*
X127000D01*
X107950Y39370D02*
Y57150D01*
Y39370D02*
X121920Y25400D01*
X553720Y157480D02*
X563880Y167640D01*
X607082Y167618D02*
X609600Y165100D01*
X601554Y167618D02*
X607082D01*
X563880Y167640D02*
X601532D01*
X601554Y167618D01*
X571500Y266700D02*
X609600D01*
X571500Y292100D02*
X609600D01*
X571500Y317500D02*
X609600D01*
X107950Y457200D02*
Y488950D01*
X120650Y501650D01*
X311150Y82550D02*
Y133350D01*
X342900Y165100D02*
X355600D01*
X311150Y133350D02*
X342900Y165100D01*
X273050Y127000D02*
X292100D01*
X355600Y190500D01*
X273050Y57150D02*
X285750D01*
X311150Y82550D01*
X304800Y342900D02*
Y368300D01*
X281753Y391347D02*
X304800Y368300D01*
X275403Y391347D02*
X281753D01*
X273050Y393700D02*
X275403Y391347D01*
X311150Y349250D02*
Y412750D01*
X342900Y317500D02*
X355600D01*
X311150Y349250D02*
X342900Y317500D01*
X304800Y342900D02*
X355600Y292100D01*
X330200Y190500D02*
X355600Y215900D01*
X273050Y190500D02*
X330200D01*
X266700Y457200D02*
X311150Y412750D01*
X552450Y361950D02*
X571500Y342900D01*
X609600D01*
X82550Y57150D02*
Y127000D01*
Y190500D01*
Y260350D01*
Y330200D01*
Y393700D01*
X692150Y292100D02*
Y295526D01*
X696405Y299780D01*
Y358447D01*
X699908Y361950D01*
X684392D02*
Y363488D01*
X679580Y368300D02*
X684392Y363488D01*
X609600Y368300D02*
X679580D01*
X694939Y450850D02*
X698500D01*
X688589Y444500D02*
X694939Y450850D01*
X609600Y444500D02*
X688589D01*
D16*
X684392Y361950D02*
D03*
X699908D02*
D03*
D17*
X698500Y450850D02*
D03*
X800100Y381000D02*
D03*
X952500Y25400D02*
D03*
X800100D02*
D03*
X952500Y381000D02*
D03*
X355600Y114300D02*
D03*
Y139700D02*
D03*
Y165100D02*
D03*
Y190500D02*
D03*
Y215900D02*
D03*
Y241300D02*
D03*
Y266700D02*
D03*
Y292100D02*
D03*
Y317500D02*
D03*
Y342900D02*
D03*
Y368300D02*
D03*
Y393700D02*
D03*
Y419100D02*
D03*
Y444500D02*
D03*
X558800Y577850D02*
D03*
X730250Y450850D02*
D03*
X558800Y768350D02*
D03*
X952500Y527050D02*
D03*
X965200Y768350D02*
D03*
X609600Y139700D02*
D03*
Y114300D02*
D03*
Y165100D02*
D03*
Y190500D02*
D03*
Y215900D02*
D03*
Y241300D02*
D03*
Y266700D02*
D03*
Y292100D02*
D03*
Y317500D02*
D03*
Y342900D02*
D03*
Y368300D02*
D03*
Y393700D02*
D03*
Y419100D02*
D03*
Y444500D02*
D03*
X965200Y577850D02*
D03*
X952500Y469900D02*
D03*
D18*
X355600D02*
D03*
X609600D02*
D03*
D19*
X273050Y190500D02*
D03*
Y393700D02*
D03*
Y127000D02*
D03*
X241300Y457200D02*
D03*
X247650Y393700D02*
D03*
Y330200D02*
D03*
Y260350D02*
D03*
Y190500D02*
D03*
Y127000D02*
D03*
Y57150D02*
D03*
X133350Y457200D02*
D03*
Y393700D02*
D03*
Y330200D02*
D03*
Y260350D02*
D03*
Y190500D02*
D03*
Y127000D02*
D03*
Y57150D02*
D03*
X57150Y457200D02*
D03*
Y393700D02*
D03*
Y330200D02*
D03*
Y260350D02*
D03*
Y190500D02*
D03*
Y127000D02*
D03*
Y57150D02*
D03*
X692150Y266700D02*
D03*
X273050Y330200D02*
D03*
X266700Y457200D02*
D03*
X273050Y260350D02*
D03*
Y57150D02*
D03*
X82550Y457200D02*
D03*
Y393700D02*
D03*
Y330200D02*
D03*
Y260350D02*
D03*
Y190500D02*
D03*
Y127000D02*
D03*
Y57150D02*
D03*
X107950Y393700D02*
D03*
Y457200D02*
D03*
Y127000D02*
D03*
Y190500D02*
D03*
Y260350D02*
D03*
Y57150D02*
D03*
Y330200D02*
D03*
X692150Y292100D02*
D03*
D20*
X158750Y457200D02*
D03*
Y393700D02*
D03*
Y330200D02*
D03*
Y260350D02*
D03*
Y190500D02*
D03*
Y127000D02*
D03*
Y57150D02*
D03*
X215900Y457200D02*
D03*
X222250Y393700D02*
D03*
Y330200D02*
D03*
Y260350D02*
D03*
Y190500D02*
D03*
Y127000D02*
D03*
Y57150D02*
D03*
D21*
X692150Y241300D02*
D03*
D22*
X451650Y666750D02*
D03*
D23*
X501650D02*
D03*
D24*
X908050Y514350D02*
Y558800D01*
Y514350D02*
X952500Y469900D01*
X908050Y558800D02*
X927100Y577850D01*
X965076D01*
X952500Y381000D02*
Y469900D01*
D25*
X104140Y520700D02*
D03*
X548640Y203200D02*
D03*
X121920Y157480D02*
D03*
X467360Y360680D02*
D03*
X142240Y299720D02*
D03*
X492760Y360680D02*
D03*
X513080D02*
D03*
X533400D02*
D03*
X147320D02*
D03*
X152400Y421640D02*
D03*
X553720Y177800D02*
D03*
X121920Y91440D02*
D03*
X553720Y157480D02*
D03*
X127000Y25400D02*
D03*
X120650Y501650D02*
D03*
X552450Y361950D02*
D03*
M02*
