G04*
G04 #@! TF.GenerationSoftware,Altium Limited,Altium Designer,26.9.1 (10)*
G04*
G04 Layer_Physical_Order=2*
G04 Layer_Color=32768*
G04 Board_Origin=10000000|10000000*
%FSLAX25Y25*%
%MOIN*%
G70*
G04*
G04 #@! TF.SameCoordinates,B1DA24E4-2A18-4C1D-9527-E43FFD8D8DB7*
G04*
G04*
G04 #@! TF.FilePolarity,Negative*
G04*
G01*
G75*
%ADD45C,0.04000*%
%ADD46C,0.06756*%
%ADD47C,0.08016*%
%ADD48C,0.07543*%
%ADD49C,0.05200*%
%ADD50C,0.05400*%
D45*
X0Y0D02*
X102362D01*
Y151638D01*
X96520Y157480D02*
X102362Y151638D01*
X5480Y157480D02*
X96520D01*
X0Y152000D02*
X5480Y157480D01*
X0Y0D02*
Y152000D01*
D46*
X50311Y75626D02*
D03*
X26689D02*
D03*
X14878Y83500D02*
D03*
X62122D02*
D03*
X54248D02*
D03*
X46374D02*
D03*
X38500D02*
D03*
X34563Y75626D02*
D03*
X42437D02*
D03*
X30626Y83500D02*
D03*
X22752D02*
D03*
X18815Y75626D02*
D03*
D47*
X94949Y144939D02*
D03*
Y134939D02*
D03*
Y124939D02*
D03*
Y114939D02*
D03*
Y94939D02*
D03*
D48*
X8000Y104500D02*
D03*
X93000Y12000D02*
D03*
Y22000D02*
D03*
D49*
X38071Y102025D02*
D03*
X47482Y92982D02*
D03*
X54500Y79000D02*
D03*
X81500Y91000D02*
D03*
X84000Y133500D02*
D03*
X82228Y149000D02*
D03*
X27000Y106000D02*
D03*
X28634Y88011D02*
D03*
X38000Y92500D02*
D03*
X28268Y121732D02*
D03*
X29500Y126500D02*
D03*
X17500Y110000D02*
D03*
X27000Y102025D02*
D03*
X19786Y92000D02*
D03*
X55500Y17500D02*
D03*
X63500Y15000D02*
D03*
X47000Y14000D02*
D03*
X19500Y18000D02*
D03*
D50*
X68459Y72541D02*
D03*
X31500Y90500D02*
D03*
X38000Y106000D02*
D03*
X19294Y125706D02*
D03*
X32500Y116000D02*
D03*
X14000Y33500D02*
D03*
X42000Y65666D02*
D03*
X39000Y27500D02*
D03*
X32500Y112000D02*
D03*
X28500Y134000D02*
D03*
X67518Y107482D02*
D03*
X33000Y137500D02*
D03*
X29500Y141000D02*
D03*
X18500Y135000D02*
D03*
X4500Y65000D02*
D03*
X70000Y113500D02*
D03*
X27500Y36000D02*
D03*
X39000Y11500D02*
D03*
X36396Y40831D02*
D03*
X22896Y43331D02*
D03*
X69896Y36831D02*
D03*
X58896Y29831D02*
D03*
X54396Y37831D02*
D03*
X81500Y76954D02*
D03*
X81474Y58157D02*
D03*
X85000Y15000D02*
D03*
X32984Y8732D02*
D03*
X88500Y18500D02*
D03*
Y74500D02*
D03*
X89000Y61500D02*
D03*
M02*
