M48
;Layer_Color=9474304
;FILE_FORMAT=2:5
INCH,LZ
;TYPE=PLATED
T01F00S00C0.01200
T02F00S00C0.01400
T04F00S00C0.02756
T05F00S00C0.03543
T06F00S00C0.04016
%
T01
X00065Y0014
X00115Y00105
X00195Y0018
X0023Y0029666
X00075Y0029
X0006104Y0043188
X0034396Y0051331
X005083Y0051149
X0045896Y0040831
X0047Y0014
X00555Y00175
X00445Y0003
X0042Y00035
X00635Y0015
X0056396Y0025331
X0076Y0021
X00785Y00075
X00945Y0038
X0082Y0055
X0061396Y0048831
X00975Y0057
X00965Y00675
X0082Y0081
X00815Y0091
X007874Y009424
X0084Y01335
X0086Y01395
X0075Y0139
Y0143
X00745Y015
X00715
X0068
X00645
X0061
X0058
X0062Y0132
Y0126
X0061Y0123
X0082228Y0149
X0083Y01525
X00545Y015
X0051
X0047705Y0150205
X00445Y015
X0041205Y0150205
X0038Y01505
X0034358Y0150358
X0031Y01505
X0026795Y0149205
X0027Y0146
X0011Y0144756
X001053Y012612
X0006095Y0114194
X00175Y011
X00195Y0099
X0019786Y0092
X0028634Y0088011
X0038Y00925
X0038071Y0102025
X0027
Y0106
X0028268Y0121732
X00295Y01265
X004Y0126
Y0119
X0048Y0118
Y0123
X0054
Y01165
X0055Y0129
X0048
X0051Y0137
X004Y0133
X0047482Y0092982
X00545Y0079
X0054396Y0059331
X0023Y0059
T02
X0032984Y0008732
X0039Y00115
Y00275
X0036396Y0040831
X00275Y0036
X0022896Y0043331
X0014Y00335
X0054396Y0037831
X0058896Y0029831
X0069896Y0036831
X0085Y0015
X00885Y00185
X0089Y00615
X0081474Y0058157
X00815Y0076954
X00885Y00745
X0068459Y0072541
X0067518Y0107482
X007Y01135
X00325Y0112
Y0116
X0038Y0106
X00315Y00905
X0042Y0065666
X00045Y0065
X0019294Y0125706
X00185Y0135
X00285Y0134
X0033Y01375
X00295Y0141
T04
X0058185Y0075626
X0062122Y00835
X0054248
X0046374
X00385
X0030626
X0022752
X0014878
X0018815Y0075626
X0026689
X0034563
X0042437
X0050311
T05
X0093Y0012
Y0022
X0008Y00945
Y01045
T06
X0094949Y0094939
Y0104939
Y0114939
Y0124939
Y0134939
Y0144939
M30
