G04*
G04 #@! TF.GenerationSoftware,Altium Limited,Altium Designer,26.9.1 (10)*
G04*
G04 Layer_Color=65535*
G04 Board_Origin=10000000|10000000*
%FSLAX25Y25*%
%MOIN*%
G70*
G04*
G04 #@! TF.SameCoordinates,B1DA24E4-2A18-4C1D-9527-E43FFD8D8DB7*
G04*
G04*
G04 #@! TF.FilePolarity,Positive*
G04*
G01*
G75*
%ADD10C,0.00984*%
%ADD11C,0.00787*%
%ADD12C,0.00600*%
%ADD13C,0.00400*%
%ADD14C,0.00300*%
D10*
X67746Y64591D02*
G03*
X67746Y64591I-492J0D01*
G01*
X39746D02*
G03*
X39746Y64591I-492J0D01*
G01*
X73471Y54940D02*
G03*
X73471Y54940I-492J0D01*
G01*
D11*
X70207Y32209D02*
Y54453D01*
X53573Y31520D02*
X63219D01*
X46585Y32209D02*
Y54453D01*
X53573Y55142D02*
X63219D01*
X7004Y86924D02*
X12937D01*
X7004Y75114D02*
X14909D01*
X69996Y77083D02*
Y86925D01*
X68028Y75114D02*
X69976Y77063D01*
X7004Y75114D02*
Y86923D01*
X62090Y75114D02*
X68028D01*
X65646Y86925D02*
X69996D01*
X16378Y141803D02*
Y142197D01*
X13622Y141803D02*
Y142197D01*
X25573Y55142D02*
X35219D01*
X18585Y32209D02*
Y54453D01*
X25573Y31520D02*
X35219D01*
X42207Y32209D02*
Y54453D01*
X74622Y27803D02*
Y28197D01*
X77378Y27803D02*
Y28197D01*
X59500Y4740D02*
Y14740D01*
X51500Y4740D02*
Y14740D01*
X45638Y8853D02*
Y9246D01*
X48394Y8853D02*
Y9246D01*
X8122Y21047D02*
Y21441D01*
X10878Y21047D02*
Y21441D01*
X84622Y145303D02*
Y145697D01*
X87378Y145303D02*
Y145697D01*
X88000Y27000D02*
X98000D01*
Y7000D02*
Y27000D01*
X88000Y7000D02*
X98000D01*
X88000D02*
Y27000D01*
X31977Y70119D02*
X32371D01*
X31977Y67363D02*
X32371D01*
X21867Y70119D02*
X22261D01*
X21867Y67363D02*
X22261D01*
X10803Y148622D02*
X11197D01*
X10803Y151378D02*
X11197D01*
X4612Y135551D02*
X14612D01*
X4612Y127551D02*
X14612D01*
X5622Y141803D02*
Y142197D01*
X8378Y141803D02*
Y142197D01*
X10211Y124185D02*
X10605D01*
X10211Y121429D02*
X10605D01*
X8653Y113899D02*
Y118032D01*
X3535Y113899D02*
Y118032D01*
X101325Y85511D02*
X104179D01*
X84789D02*
X89711D01*
X104179Y49527D02*
Y85511D01*
X101325Y49527D02*
X104179D01*
X84789D02*
X89711D01*
X15559Y113933D02*
Y118067D01*
X10441Y113933D02*
Y118067D01*
D12*
X81981Y95184D02*
Y176884D01*
X20381Y95184D02*
X81981D01*
X20381D02*
Y176884D01*
X81981D01*
D13*
X3400Y7900D02*
Y9233D01*
X4066Y9899D01*
X4733Y9233D01*
Y7900D01*
Y8900D01*
X3400D01*
X5399Y7900D02*
Y9233D01*
X6066Y9899D01*
X6732Y9233D01*
Y7900D01*
Y8900D01*
X5399D01*
X7399Y9899D02*
Y7900D01*
Y8567D01*
X8732Y9899D01*
X7732Y8900D01*
X8732Y7900D01*
X9398D02*
Y9233D01*
X10064Y9899D01*
X10731Y9233D01*
Y7900D01*
Y8900D01*
X9398D01*
X12730Y9566D02*
X12397Y9899D01*
X11731D01*
X11397Y9566D01*
Y9233D01*
X11731Y8900D01*
X12397D01*
X12730Y8567D01*
Y8233D01*
X12397Y7900D01*
X11731D01*
X11397Y8233D01*
X13397Y9899D02*
Y7900D01*
Y8900D01*
X14730D01*
Y9899D01*
Y7900D01*
X15396Y9899D02*
Y7900D01*
X16396D01*
X16729Y8233D01*
Y9566D01*
X16396Y9899D01*
X15396D01*
X17395D02*
X18062D01*
X17729D01*
Y7900D01*
X17395D01*
X18062D01*
X19062D02*
Y9899D01*
X20061D01*
X20394Y9566D01*
Y8900D01*
X20061Y8567D01*
X19062D01*
X23060Y9899D02*
Y7900D01*
X24060D01*
X24393Y8233D01*
Y9566D01*
X24060Y9899D01*
X23060D01*
X26392D02*
X25060D01*
Y7900D01*
X26392D01*
X25060Y8900D02*
X25726D01*
X27059Y9899D02*
Y9566D01*
X27725Y8900D01*
X28392Y9566D01*
Y9899D01*
X27725Y8900D02*
Y7900D01*
X4600Y6199D02*
X3400D01*
Y5300D01*
X4000D01*
X3400D01*
Y4400D01*
X5499D02*
X6099D01*
X6399Y4700D01*
Y5300D01*
X6099Y5600D01*
X5499D01*
X5199Y5300D01*
Y4700D01*
X5499Y4400D01*
X6999Y5600D02*
Y4400D01*
Y5000D01*
X7299Y5300D01*
X7599Y5600D01*
X7899D01*
X8798D02*
X9098D01*
Y5300D01*
X8798D01*
Y5600D01*
Y4700D02*
X9098D01*
Y4400D01*
X8798D01*
Y4700D01*
X12097Y6199D02*
Y4400D01*
X12997D01*
X13297Y4700D01*
Y5900D01*
X12997Y6199D01*
X12097D01*
X13897D02*
Y4400D01*
Y5300D01*
X15096D01*
Y6199D01*
Y4400D01*
X15696Y6199D02*
X16296D01*
X15996D01*
Y4400D01*
X15696D01*
X16296D01*
X17196D02*
Y6199D01*
X17795Y5600D01*
X18395Y6199D01*
Y4400D01*
X18995D02*
Y5600D01*
X19595Y6199D01*
X20195Y5600D01*
Y4400D01*
Y5300D01*
X18995D01*
X20794Y4400D02*
Y6199D01*
X21994Y4400D01*
Y6199D01*
X22594D02*
X23793D01*
X23194D01*
Y4400D01*
X26193Y6199D02*
X27392D01*
X26792D01*
Y4400D01*
X29192Y6199D02*
X27992D01*
Y4400D01*
X29192D01*
X27992Y5300D02*
X28592D01*
X29792Y6199D02*
Y4400D01*
X30391Y5000D01*
X30991Y4400D01*
Y6199D01*
X31591Y4400D02*
Y5600D01*
X32191Y6199D01*
X32790Y5600D01*
Y4400D01*
Y5300D01*
X31591D01*
X33390Y4400D02*
Y6199D01*
X34290D01*
X34590Y5900D01*
Y5300D01*
X34290Y5000D01*
X33390D01*
X33990D02*
X34590Y4400D01*
X35190Y6199D02*
X35790D01*
X35490D01*
Y4400D01*
X35190D01*
X35790D01*
X47336Y65500D02*
Y63500D01*
X48336D01*
X48669Y63834D01*
Y64167D01*
X48336Y64500D01*
X47336D01*
X48336D01*
X48669Y64833D01*
Y65166D01*
X48336Y65500D01*
X47336D01*
X50335D02*
X49669D01*
X49336Y65166D01*
Y63834D01*
X49669Y63500D01*
X50335D01*
X50668Y63834D01*
Y65166D01*
X50335Y65500D01*
X52334D02*
X51668D01*
X51335Y65166D01*
Y63834D01*
X51668Y63500D01*
X52334D01*
X52668Y63834D01*
Y65166D01*
X52334Y65500D01*
X53334D02*
X54667D01*
X54001D01*
Y63500D01*
X55334D02*
X56666Y64833D01*
X57333Y65500D02*
Y63834D01*
X57666Y63500D01*
X58333D01*
X58666Y63834D01*
Y65500D01*
X60665Y65166D02*
X60332Y65500D01*
X59666D01*
X59332Y65166D01*
Y64833D01*
X59666Y64500D01*
X60332D01*
X60665Y64167D01*
Y63834D01*
X60332Y63500D01*
X59666D01*
X59332Y63834D01*
X62665Y65500D02*
X61332D01*
Y63500D01*
X62665D01*
X61332Y64500D02*
X61998D01*
X63331Y63500D02*
Y65500D01*
X64331D01*
X64664Y65166D01*
Y64500D01*
X64331Y64167D01*
X63331D01*
X63997D02*
X64664Y63500D01*
X53336Y73000D02*
X52669D01*
X52336Y72667D01*
Y71334D01*
X52669Y71000D01*
X53336D01*
X53669Y71334D01*
Y72667D01*
X53336Y73000D01*
X54335D02*
Y71000D01*
X55668D01*
X57668Y73000D02*
X56335D01*
Y71000D01*
X57668D01*
X56335Y72000D02*
X57001D01*
X58334Y73000D02*
Y71000D01*
X59334D01*
X59667Y71334D01*
Y72667D01*
X59334Y73000D01*
X58334D01*
X63666Y72667D02*
X63333Y73000D01*
X62666D01*
X62333Y72667D01*
Y71334D01*
X62666Y71000D01*
X63333D01*
X63666Y71334D01*
X65332Y73000D02*
X64666D01*
X64332Y72667D01*
Y71334D01*
X64666Y71000D01*
X65332D01*
X65665Y71334D01*
Y72667D01*
X65332Y73000D01*
X66332Y71000D02*
Y73000D01*
X67664Y71000D01*
Y73000D01*
X68331Y71000D02*
Y73000D01*
X69664Y71000D01*
Y73000D01*
X74325Y90518D02*
Y88852D01*
X74658Y88519D01*
X75325D01*
X75658Y88852D01*
Y90518D01*
X77657Y90185D02*
X77324Y90518D01*
X76658D01*
X76324Y90185D01*
Y89852D01*
X76658Y89519D01*
X77324D01*
X77657Y89186D01*
Y88852D01*
X77324Y88519D01*
X76658D01*
X76324Y88852D01*
X78324Y90518D02*
Y88519D01*
X79324D01*
X79657Y88852D01*
Y89186D01*
X79324Y89519D01*
X78324D01*
X79324D01*
X79657Y89852D01*
Y90185D01*
X79324Y90518D01*
X78324D01*
X80323Y89519D02*
X81656D01*
X83655Y90185D02*
X83322Y90518D01*
X82656D01*
X82323Y90185D01*
Y88852D01*
X82656Y88519D01*
X83322D01*
X83655Y88852D01*
X21667Y181000D02*
Y179334D01*
X22000Y179000D01*
X22667D01*
X23000Y179334D01*
Y181000D01*
X23666Y179000D02*
X24333D01*
X24000D01*
Y181000D01*
X23666Y180666D01*
X17834Y63500D02*
Y65500D01*
X18834D01*
X19167Y65166D01*
Y64500D01*
X18834Y64167D01*
X17834D01*
X18501D02*
X19167Y63500D01*
X21167Y65166D02*
X20833Y65500D01*
X20167D01*
X19834Y65166D01*
Y64833D01*
X20167Y64500D01*
X20833D01*
X21167Y64167D01*
Y63834D01*
X20833Y63500D01*
X20167D01*
X19834Y63834D01*
X21833Y65500D02*
X23166D01*
X22499D01*
Y63500D01*
X88375Y27701D02*
Y29700D01*
X89042Y29034D01*
X89708Y29700D01*
Y27701D01*
X90375D02*
X91041D01*
X90708D01*
Y29700D01*
X90375Y29367D01*
X47225Y15664D02*
X46892Y15997D01*
X46226D01*
X45893Y15664D01*
Y14331D01*
X46226Y13997D01*
X46892D01*
X47225Y14331D01*
X47892Y15664D02*
X48225Y15997D01*
X48891D01*
X49225Y15664D01*
Y15330D01*
X48891Y14997D01*
X48558D01*
X48891D01*
X49225Y14664D01*
Y14331D01*
X48891Y13997D01*
X48225D01*
X47892Y14331D01*
X52796Y20411D02*
X52463Y20744D01*
X51797D01*
X51463Y20411D01*
Y19078D01*
X51797Y18745D01*
X52463D01*
X52796Y19078D01*
X54796Y18745D02*
X53463D01*
X54796Y20078D01*
Y20411D01*
X54462Y20744D01*
X53796D01*
X53463Y20411D01*
D14*
X4366Y12166D02*
X4100Y12433D01*
X3567D01*
X3300Y12166D01*
Y11100D01*
X3567Y10833D01*
X4100D01*
X4366Y11100D01*
X4899Y11900D02*
Y10833D01*
Y11366D01*
X5166Y11633D01*
X5433Y11900D01*
X5699D01*
X7299Y10833D02*
X6765D01*
X6499Y11100D01*
Y11633D01*
X6765Y11900D01*
X7299D01*
X7565Y11633D01*
Y11366D01*
X6499D01*
X8365Y11900D02*
X8898D01*
X9165Y11633D01*
Y10833D01*
X8365D01*
X8098Y11100D01*
X8365Y11366D01*
X9165D01*
X9965Y12166D02*
Y11900D01*
X9698D01*
X10231D01*
X9965D01*
Y11100D01*
X10231Y10833D01*
X11831D02*
X11297D01*
X11031Y11100D01*
Y11633D01*
X11297Y11900D01*
X11831D01*
X12097Y11633D01*
Y11366D01*
X11031D01*
X13697Y12433D02*
Y10833D01*
X12897D01*
X12630Y11100D01*
Y11633D01*
X12897Y11900D01*
X13697D01*
X15829Y12433D02*
Y10833D01*
X16629D01*
X16896Y11100D01*
Y11366D01*
Y11633D01*
X16629Y11900D01*
X15829D01*
X17429D02*
Y11100D01*
X17695Y10833D01*
X18495D01*
Y10567D01*
X18228Y10300D01*
X17962D01*
X18495Y10833D02*
Y11900D01*
X19028D02*
X19295D01*
Y11633D01*
X19028D01*
Y11900D01*
Y11100D02*
X19295D01*
Y10833D01*
X19028D01*
Y11100D01*
X18272Y151075D02*
X21604Y147742D01*
X18272D02*
X21604Y151075D01*
X18272Y149409D02*
X21604D01*
X19938Y147742D02*
Y151075D01*
X37431Y128483D02*
Y124317D01*
X38264Y123484D01*
X39930D01*
X40763Y124317D01*
Y128483D01*
X42430Y123484D02*
X44096D01*
X43262D01*
Y128483D01*
X42430Y127650D01*
M02*
