G04*
G04 #@! TF.GenerationSoftware,Altium Limited,Altium Designer,26.9.1 (10)*
G04*
G04 Layer_Physical_Order=4*
G04 Layer_Color=16711680*
G04 Board_Origin=10000000|10000000*
%FSLAX25Y25*%
%MOIN*%
G70*
G04*
G04 #@! TF.SameCoordinates,B1DA24E4-2A18-4C1D-9527-E43FFD8D8DB7*
G04*
G04*
G04 #@! TF.FilePolarity,Positive*
G04*
G01*
G75*
%ADD17R,0.02165X0.02165*%
%ADD20R,0.03543X0.02756*%
%ADD21R,0.02756X0.03543*%
%ADD24R,0.05906X0.05512*%
%ADD27C,0.05906*%
G04:AMPARAMS|DCode=28|XSize=39.37mil|YSize=70.87mil|CornerRadius=19.68mil|HoleSize=0mil|Usage=FLASHONLY|Rotation=90.000|XOffset=0mil|YOffset=0mil|HoleType=Round|Shape=RoundedRectangle|*
%AMROUNDEDRECTD28*
21,1,0.03937,0.03150,0,0,90.0*
21,1,0.00000,0.07087,0,0,90.0*
1,1,0.03937,0.01575,0.00000*
1,1,0.03937,0.01575,0.00000*
1,1,0.03937,-0.01575,0.00000*
1,1,0.03937,-0.01575,0.00000*
%
%ADD28ROUNDEDRECTD28*%
G04:AMPARAMS|DCode=29|XSize=39.37mil|YSize=86.61mil|CornerRadius=19.68mil|HoleSize=0mil|Usage=FLASHONLY|Rotation=90.000|XOffset=0mil|YOffset=0mil|HoleType=Round|Shape=RoundedRectangle|*
%AMROUNDEDRECTD29*
21,1,0.03937,0.04724,0,0,90.0*
21,1,0.00000,0.08661,0,0,90.0*
1,1,0.03937,0.02362,0.00000*
1,1,0.03937,0.02362,0.00000*
1,1,0.03937,-0.02362,0.00000*
1,1,0.03937,-0.02362,0.00000*
%
%ADD29ROUNDEDRECTD29*%
%ADD30C,0.06102*%
%ADD31C,0.04724*%
%ADD32R,0.04724X0.04724*%
%ADD33R,0.05906X0.05906*%
%ADD34R,0.06102X0.06102*%
%ADD36C,0.00800*%
%ADD37C,0.01000*%
%ADD38C,0.01400*%
%ADD39C,0.02000*%
%ADD40C,0.01500*%
%ADD41C,0.01200*%
%ADD42C,0.02500*%
%ADD43C,0.01800*%
%ADD44C,0.02400*%
%ADD51C,0.00800*%
%ADD52R,0.03975X0.02079*%
G04:AMPARAMS|DCode=53|XSize=52.69mil|YSize=22.75mil|CornerRadius=11.38mil|HoleSize=0mil|Usage=FLASHONLY|Rotation=180.000|XOffset=0mil|YOffset=0mil|HoleType=Round|Shape=RoundedRectangle|*
%AMROUNDEDRECTD53*
21,1,0.05269,0.00000,0,0,180.0*
21,1,0.02993,0.02275,0,0,180.0*
1,1,0.02275,-0.01497,0.00000*
1,1,0.02275,0.01497,0.00000*
1,1,0.02275,0.01497,0.00000*
1,1,0.02275,-0.01497,0.00000*
%
%ADD53ROUNDEDRECTD53*%
%ADD54R,0.05938X0.05534*%
G04:AMPARAMS|DCode=55|XSize=67.21mil|YSize=24.25mil|CornerRadius=12.12mil|HoleSize=0mil|Usage=FLASHONLY|Rotation=180.000|XOffset=0mil|YOffset=0mil|HoleType=Round|Shape=RoundedRectangle|*
%AMROUNDEDRECTD55*
21,1,0.06721,0.00000,0,0,180.0*
21,1,0.04296,0.02425,0,0,180.0*
1,1,0.02425,-0.02148,0.00000*
1,1,0.02425,0.02148,0.00000*
1,1,0.02425,0.02148,0.00000*
1,1,0.02425,-0.02148,0.00000*
%
%ADD55ROUNDEDRECTD55*%
%ADD56R,0.11024X0.09449*%
%ADD57R,0.02631X0.02648*%
G04:AMPARAMS|DCode=58|XSize=53.49mil|YSize=23.1mil|CornerRadius=11.55mil|HoleSize=0mil|Usage=FLASHONLY|Rotation=180.000|XOffset=0mil|YOffset=0mil|HoleType=Round|Shape=RoundedRectangle|*
%AMROUNDEDRECTD58*
21,1,0.05349,0.00000,0,0,180.0*
21,1,0.03039,0.02310,0,0,180.0*
1,1,0.02310,-0.01519,0.00000*
1,1,0.02310,0.01519,0.00000*
1,1,0.02310,0.01519,0.00000*
1,1,0.02310,-0.01519,0.00000*
%
%ADD58ROUNDEDRECTD58*%
%ADD59R,0.05269X0.02275*%
%ADD60R,0.05349X0.02310*%
G04:AMPARAMS|DCode=61|XSize=31.82mil|YSize=29.22mil|CornerRadius=14.61mil|HoleSize=0mil|Usage=FLASHONLY|Rotation=0.000|XOffset=0mil|YOffset=0mil|HoleType=Round|Shape=RoundedRectangle|*
%AMROUNDEDRECTD61*
21,1,0.03182,0.00000,0,0,0.0*
21,1,0.00260,0.02922,0,0,0.0*
1,1,0.02922,0.00130,0.00000*
1,1,0.02922,-0.00130,0.00000*
1,1,0.02922,-0.00130,0.00000*
1,1,0.02922,0.00130,0.00000*
%
%ADD61ROUNDEDRECTD61*%
%ADD62R,0.03182X0.02922*%
%ADD63R,0.02029X0.01860*%
%ADD64R,0.03150X0.03150*%
%ADD65R,0.06721X0.02425*%
%ADD66R,0.03543X0.03740*%
%ADD67C,0.01600*%
D17*
X32656Y49346D02*
D03*
Y45803D02*
D03*
D20*
X6500Y11756D02*
D03*
Y6244D02*
D03*
D21*
X46586Y51149D02*
D03*
X41074D02*
D03*
D24*
X6104Y49448D02*
D03*
Y56928D02*
D03*
D27*
X8000Y94500D02*
D03*
X93000Y22000D02*
D03*
D28*
X79770Y50511D02*
D03*
Y84527D02*
D03*
D29*
X95518Y50511D02*
D03*
Y84527D02*
D03*
D30*
X94949Y104939D02*
D03*
Y144939D02*
D03*
Y134939D02*
D03*
Y124939D02*
D03*
Y114939D02*
D03*
D31*
X58185Y75626D02*
D03*
X50311D02*
D03*
X26689D02*
D03*
X14878Y83500D02*
D03*
X54248D02*
D03*
X46374D02*
D03*
X38500D02*
D03*
X34563Y75626D02*
D03*
X42437D02*
D03*
X30626Y83500D02*
D03*
X22752D02*
D03*
X18815Y75626D02*
D03*
D32*
X62122Y83500D02*
D03*
D33*
X8000Y104500D02*
D03*
X93000Y12000D02*
D03*
D34*
X94949Y94939D02*
D03*
D36*
X26298Y83158D02*
G03*
X26314Y83564I-3546J342D01*
G01*
X38071Y102025D02*
X38255D01*
X47298Y92982D01*
X47482D01*
X54312Y79188D02*
X54500Y79000D01*
X38125Y79188D02*
X54312D01*
X34563Y75626D02*
X38125Y79188D01*
X27067Y106000D02*
X29400Y103667D01*
X27000Y106000D02*
X27067D01*
X29400Y96115D02*
Y103667D01*
X26000Y101025D02*
X27000Y102025D01*
X26298Y83122D02*
X26298Y83158D01*
Y82790D02*
X30544Y78544D01*
X26000Y101025D02*
X26314Y83564D01*
X26298Y83122D02*
X26298Y82790D01*
X28000Y94715D02*
X29400Y96115D01*
X28634Y88011D02*
Y88444D01*
X28000Y89078D02*
X28634Y88444D01*
X28000Y89078D02*
Y94715D01*
X30544Y73456D02*
Y78544D01*
X32500Y71500D02*
X46185D01*
X30544Y73456D02*
X32500Y71500D01*
X46185D02*
X50311Y75626D01*
X17500Y110000D02*
Y123912D01*
X19294Y125706D01*
D37*
X51500Y92500D02*
X62500D01*
X38000Y106000D02*
X51500Y92500D01*
X68459Y72541D02*
Y86541D01*
X62500Y92500D02*
X68459Y86541D01*
X42000Y65666D02*
X42379D01*
X43545Y64500D01*
X70035D01*
X73694Y68158D01*
Y84648D01*
X77352Y88306D01*
X78806D01*
X81500Y91000D01*
X84000Y133500D02*
Y133775D01*
X82228Y135547D02*
X84000Y133775D01*
X82228Y135547D02*
Y149000D01*
X31500Y90500D02*
X31854D01*
X33854Y92500D01*
X38000D01*
X22286Y119286D02*
X29500Y126500D01*
X22286Y90965D02*
Y119286D01*
X18954Y87633D02*
X22286Y90965D01*
X24086Y117550D02*
X28268Y121732D01*
X24086Y90219D02*
Y117550D01*
X18815Y84948D02*
X24086Y90219D01*
X18815Y75626D02*
Y84948D01*
X71818Y114939D02*
X94949D01*
X70379Y113500D02*
X71818Y114939D01*
X3500Y8850D02*
X6106Y6244D01*
X3500Y34000D02*
X10500Y41000D01*
X3500Y8850D02*
Y9768D01*
Y13744D02*
Y34000D01*
X3428Y9839D02*
X3500Y9768D01*
X3428Y9839D02*
Y13672D01*
X3500Y13744D01*
X13832Y87633D02*
X18954D01*
X10500Y84301D02*
X13832Y87633D01*
X10500Y41000D02*
Y84301D01*
X6106Y6244D02*
X6500D01*
X19500Y92000D02*
X19786D01*
X13000Y98500D02*
X19500Y92000D01*
X13000Y98500D02*
Y124500D01*
X20500Y132000D01*
X26500D02*
X28500Y134000D01*
X20500Y132000D02*
X26500D01*
X12658Y6091D02*
X12811Y5937D01*
X6653Y6091D02*
X12658D01*
X6500Y6244D02*
X6653Y6091D01*
X78064Y120600D02*
X88500Y131036D01*
Y137000D02*
X93476Y141976D01*
Y142086D01*
X94949Y143559D02*
Y144939D01*
X93476Y142086D02*
X94949Y143559D01*
X88500Y131036D02*
Y137000D01*
X32500Y116000D02*
X34500Y114000D01*
X67554Y120600D02*
X78064D01*
X60954Y114000D02*
X67554Y120600D01*
X34500Y114000D02*
X60954D01*
X29882Y33500D02*
X35882Y27500D01*
X14000Y33500D02*
X29882D01*
X35882Y27500D02*
X39000D01*
X78810Y118800D02*
X94949Y134939D01*
X32500Y112000D02*
X32700Y112200D01*
X61700D02*
X68300Y118800D01*
X78810D01*
X32700Y112200D02*
X61700D01*
X67482Y107518D02*
X67518Y107482D01*
X67482Y107518D02*
Y115017D01*
X69464Y117000D02*
X87010D01*
X94949Y124939D01*
X67482Y115017D02*
X69464Y117000D01*
X70000Y113500D02*
X70379D01*
X58896Y29831D02*
X60896Y27831D01*
X65045D01*
X68545Y24331D01*
X54396Y37831D02*
Y41148D01*
X50907Y44637D02*
X54396Y41148D01*
X49410Y44637D02*
X50907D01*
X40848Y44864D02*
Y50922D01*
X41074Y51149D01*
X40621Y44637D02*
X40848Y44864D01*
X58931Y24331D02*
X62246D01*
X57431Y22831D02*
X58931Y24331D01*
X49886D02*
X53166D01*
X54666Y22831D01*
X57431D01*
X26799Y9500D02*
X27567Y8732D01*
X32984D01*
X89768Y18768D02*
X93000Y22000D01*
X88768Y18768D02*
X89768D01*
X88500Y18500D02*
X88768Y18768D01*
X26622Y9678D02*
X26799Y9500D01*
X20418Y9678D02*
X26622D01*
X88500Y74500D02*
X90394D01*
X92460Y72434D01*
Y72425D02*
Y72434D01*
X89000Y61500D02*
X92523D01*
D38*
X6500Y11756D02*
X6500Y11756D01*
X73746Y7697D02*
X73942Y7501D01*
X78499D01*
X78500Y7500D01*
X92279Y31676D02*
X94500Y33896D01*
Y38000D01*
X96477Y58023D02*
Y61500D01*
Y58023D02*
X97500Y57000D01*
X96414Y67586D02*
X96500Y67500D01*
X96414Y67586D02*
Y72425D01*
X6500Y11756D02*
Y14000D01*
X11500Y10500D02*
X11691Y10691D01*
Y13078D01*
X12031Y13418D02*
X12811D01*
X11691Y13078D02*
X12031Y13418D01*
X49377Y40864D02*
X49410Y40897D01*
X45896Y40831D02*
X45928Y40864D01*
X49377D01*
D39*
X46586Y51149D02*
X49830D01*
X49830Y51149D01*
X59651Y43916D02*
X61335Y45600D01*
Y48771D01*
X61396Y48831D01*
D40*
X24396Y47331D02*
X25915D01*
X26320Y46926D01*
Y46879D02*
Y46926D01*
Y46879D02*
X27199Y46000D01*
X32989D01*
X24396Y47331D02*
Y55492D01*
X59056Y34620D02*
X61073Y36637D01*
X61637Y36831D02*
X69896D01*
X61073Y36637D02*
X61275D01*
X59056Y34418D02*
Y34620D01*
X46821Y24331D02*
X46905D01*
X42693Y28460D02*
X46821Y24331D01*
X35590Y37157D02*
X40621D01*
X41131D02*
X41489Y36799D01*
X56969Y32331D02*
X59056Y34418D01*
X42693Y33534D02*
X43896Y32331D01*
X41489Y34738D02*
Y36799D01*
Y34738D02*
X42693Y33534D01*
X43896Y32331D02*
X56969D01*
X42693Y28460D02*
Y33534D01*
X32656Y40091D02*
Y45803D01*
Y40091D02*
X35590Y37157D01*
X27534Y58630D02*
X27664D01*
X24396Y55492D02*
X27534Y58630D01*
X81500Y76954D02*
X81622Y76832D01*
Y58304D02*
Y76832D01*
X81474Y58157D02*
X81622Y58304D01*
D41*
X23730Y135230D02*
X29500Y141000D01*
X18730Y135230D02*
X23730D01*
X18500Y135000D02*
X18730Y135230D01*
X4500Y58533D02*
X6104Y56928D01*
X4500Y58533D02*
Y65000D01*
X22697Y43530D02*
X22896Y43331D01*
X17298Y43530D02*
X22697D01*
X17099Y43729D02*
X17298Y43530D01*
X42032Y40831D02*
X45501Y37363D01*
X49204D02*
X49410Y37157D01*
X45501Y37363D02*
X49204D01*
X36396Y40831D02*
X42032D01*
D42*
X6104Y44188D02*
Y49448D01*
X63500Y11475D02*
X63538Y11437D01*
X63500Y11475D02*
Y15000D01*
X63538Y11437D02*
X64293D01*
D43*
X15144Y40126D02*
X26053D01*
X27500Y36000D02*
Y38817D01*
X26053Y40126D02*
X26309Y39871D01*
X26446D01*
X27500Y38817D01*
X39000Y11500D02*
X39100Y11400D01*
Y9600D02*
Y11400D01*
Y9600D02*
X39201Y9500D01*
X14305Y58630D02*
X14435D01*
X12724Y42546D02*
X15144Y40126D01*
X12724Y57049D02*
X14305Y58630D01*
X12724Y42546D02*
Y57049D01*
X84885Y14885D02*
X85068Y15068D01*
X83498Y14885D02*
X84885D01*
X79806Y11194D02*
X83498Y14885D01*
X46402Y8000D02*
X67122D01*
X44902Y9500D02*
X46402Y8000D01*
X67122D02*
X70247Y11125D01*
X85068Y15068D02*
Y85058D01*
X94949Y94939D01*
X90258Y8500D02*
X92279Y6479D01*
X84500Y8500D02*
X90258D01*
X79806Y11194D02*
X82000Y9000D01*
Y6000D02*
Y9000D01*
Y6000D02*
X84500Y8500D01*
X79957Y3957D02*
X82000Y6000D01*
X73746Y11437D02*
X73989Y11194D01*
X79806D01*
X70247Y11125D02*
X73434D01*
X73746Y11437D01*
Y3957D02*
X79957D01*
X39201Y9500D02*
X44902D01*
D44*
X38071Y102025D02*
D03*
X47482Y92982D02*
D03*
X54500Y79000D02*
D03*
X68459Y72541D02*
D03*
X81500Y91000D02*
D03*
X84000Y133500D02*
D03*
X82228Y149000D02*
D03*
X27000Y106000D02*
D03*
X28634Y88011D02*
D03*
X31500Y90500D02*
D03*
X19500Y99000D02*
D03*
X7500Y29000D02*
D03*
X6095Y114194D02*
D03*
X50830Y51149D02*
D03*
X34396Y51331D02*
D03*
X6104Y43188D02*
D03*
X40000Y119000D02*
D03*
X10530Y126120D02*
D03*
X11000Y144756D02*
D03*
X27000Y146000D02*
D03*
X26795Y149205D02*
D03*
X40000Y126000D02*
D03*
Y133000D02*
D03*
X41205Y150205D02*
D03*
X44500Y150000D02*
D03*
X31000Y150500D02*
D03*
X34358Y150358D02*
D03*
X38000Y150500D02*
D03*
X56396Y25331D02*
D03*
X76000Y21000D02*
D03*
X54396Y59331D02*
D03*
X61396Y48831D02*
D03*
X48000Y118000D02*
D03*
Y123000D02*
D03*
X54000D02*
D03*
X78500Y7500D02*
D03*
X94500Y38000D02*
D03*
X82000Y55000D02*
D03*
X97500Y57000D02*
D03*
X78740Y94240D02*
D03*
X96500Y67500D02*
D03*
X48000Y129000D02*
D03*
X51000Y137000D02*
D03*
X55000Y129000D02*
D03*
X47705Y150205D02*
D03*
X54500Y150000D02*
D03*
X51000D02*
D03*
X58000D02*
D03*
X61000D02*
D03*
X62000Y132000D02*
D03*
Y126000D02*
D03*
X75000Y139000D02*
D03*
Y143000D02*
D03*
X71500Y150000D02*
D03*
X86000Y139500D02*
D03*
X64500Y150000D02*
D03*
X68000D02*
D03*
X74500D02*
D03*
X83000Y152500D02*
D03*
X44500Y3000D02*
D03*
X42000Y3500D02*
D03*
X6500Y14000D02*
D03*
X11500Y10500D02*
D03*
X45896Y40831D02*
D03*
X82000Y81000D02*
D03*
X61000Y123000D02*
D03*
X54000Y116500D02*
D03*
X23000Y29666D02*
D03*
Y59000D02*
D03*
X38000Y106000D02*
D03*
Y92500D02*
D03*
X28268Y121732D02*
D03*
X29500Y126500D02*
D03*
X17500Y110000D02*
D03*
X27000Y102025D02*
D03*
X19786Y92000D02*
D03*
X19294Y125706D02*
D03*
X32500Y116000D02*
D03*
X14000Y33500D02*
D03*
X42000Y65666D02*
D03*
X39000Y27500D02*
D03*
X32500Y112000D02*
D03*
X28500Y134000D02*
D03*
X67518Y107482D02*
D03*
X33000Y137500D02*
D03*
X55500Y17500D02*
D03*
X63500Y15000D02*
D03*
X47000Y14000D02*
D03*
X29500Y141000D02*
D03*
X18500Y135000D02*
D03*
X19500Y18000D02*
D03*
X4500Y65000D02*
D03*
X70000Y113500D02*
D03*
X27500Y36000D02*
D03*
X39000Y11500D02*
D03*
X36396Y40831D02*
D03*
X22896Y43331D02*
D03*
X69896Y36831D02*
D03*
X58896Y29831D02*
D03*
X54396Y37831D02*
D03*
X81500Y76954D02*
D03*
X81474Y58157D02*
D03*
X85000Y15000D02*
D03*
X32984Y8732D02*
D03*
X88500Y18500D02*
D03*
Y74500D02*
D03*
X89000Y61500D02*
D03*
D51*
X26298Y83122D02*
D03*
D52*
X12811Y13418D02*
D03*
Y5937D02*
D03*
X20418Y9678D02*
D03*
D53*
X49410Y40897D02*
D03*
Y37157D02*
D03*
X40621Y44637D02*
D03*
Y37157D02*
D03*
D54*
X61275Y43930D02*
D03*
Y36637D02*
D03*
D55*
X73746Y7697D02*
D03*
X64293Y11437D02*
D03*
X73746Y3957D02*
D03*
X64293D02*
D03*
D56*
X92279Y31676D02*
D03*
Y6479D02*
D03*
D57*
X96477Y61500D02*
D03*
X96414Y72425D02*
D03*
X92460D02*
D03*
X92523Y61500D02*
D03*
D58*
X17099Y43729D02*
D03*
X24396Y40126D02*
D03*
D59*
X49410Y44637D02*
D03*
D60*
X24396Y47331D02*
D03*
D61*
X27632Y58630D02*
D03*
D62*
X14404D02*
D03*
D63*
X46905Y24331D02*
D03*
X49886D02*
D03*
D64*
X68545D02*
D03*
X62246D02*
D03*
D65*
X73746Y11437D02*
D03*
D66*
X39201Y9500D02*
D03*
X26799D02*
D03*
D67*
X32656Y49346D02*
Y49591D01*
X34396Y51331D01*
M02*
